<svg width="145" height="26" viewBox="0 0 145 26" fill="none" xmlns="http://www.w3.org/2000/svg">
<path d="M31.5691 8.7804C31.5691 9.85094 31.3644 12.7071 29.4707 16.0822C27.5414 19.5199 24.4904 22.4443 20.4016 24.7745C19.0026 25.5721 17.4117 25.9957 15.8052 26H15.7782C14.173 26 12.5907 25.5834 11.1988 24.7916C10.4937 24.3906 9.8155 23.9684 9.1672 23.5291C8.31417 22.949 8.12793 21.7704 8.76628 20.9601C9.11602 20.5165 9.63636 20.2819 10.1638 20.2819C10.505 20.2819 10.8505 20.3815 11.1533 20.5862C11.7263 20.9757 12.3277 21.3496 12.9532 21.705C14.7019 22.6988 16.8828 22.6931 18.6443 21.6894C22.1645 19.6834 24.7648 17.2125 26.3742 14.3449C27.8585 11.6992 28.0191 9.57229 28.0191 8.7804C28.0191 6.75875 26.6002 3.54998 22.79 3.54998C21.3797 3.54998 20.0717 3.9907 18.9031 4.85936C17.9932 5.53609 16.9155 5.89294 15.7853 5.89294C14.655 5.89294 13.5774 5.53467 12.6675 4.85936C11.4988 3.9907 10.1908 3.54998 8.7805 3.54998C4.97031 3.54998 3.55002 6.75733 3.55002 8.7804V8.85433C3.57419 10.7893 4.52105 12.5095 6.15033 13.5715C7.79952 14.6463 9.77996 14.8183 11.587 14.0464L12.1215 13.8189C14.4503 12.8237 17.1203 12.8237 19.4476 13.8189L20.9887 14.4771C21.8901 14.8624 22.3095 15.906 21.9228 16.8073C21.6342 17.4812 20.9788 17.885 20.2893 17.885C20.0561 17.885 19.8201 17.838 19.5926 17.7414L18.0515 17.0817C16.6099 16.4661 14.9564 16.4661 13.5162 17.0817L12.9817 17.3106C11.5244 17.9333 9.9335 18.1792 8.37815 18.0214C6.90383 17.8722 5.46364 17.3618 4.21253 16.5457C2.96996 15.7353 1.92784 14.6335 1.20135 13.3597C0.433624 12.0133 0.0184823 10.4694 0 8.89556C0 8.85575 0 8.81737 0 8.7804C0 6.65639 0.797584 4.51674 2.18944 2.91022C2.96996 2.01028 3.90686 1.30227 4.97457 0.807523C6.13042 0.271543 7.40997 0 8.7805 0C10.9401 0 13.0172 0.695213 14.7858 2.01171C15.3829 2.4567 16.1862 2.4567 16.7833 2.01171C18.5533 0.695213 20.6305 0 22.79 0C24.1592 0 25.4401 0.271543 26.596 0.807523C27.6637 1.30227 28.6006 2.01028 29.3811 2.91022C30.773 4.51674 31.5705 6.65639 31.5705 8.7804H31.5691Z" fill="#F69173"/>
<path d="M55.1973 5.26915C55.4759 5.34308 55.7005 5.49378 55.8683 5.71983C56.0375 5.9473 56.1214 6.20747 56.1214 6.50176V19.5345C56.1214 19.8728 56.0005 20.1657 55.7574 20.4145C55.5157 20.6647 55.2186 20.7884 54.866 20.7884C54.5134 20.7884 54.2347 20.6633 53.9859 20.4145C53.7357 20.1657 53.612 19.8714 53.612 19.5345V11.3014L50.1559 17.4872C49.8914 17.9137 49.5246 18.1256 49.0555 18.1256C48.5564 18.1256 48.1896 17.9123 47.955 17.4872L44.4761 11.3014V19.5345C44.4761 19.8728 44.3553 20.1657 44.1122 20.4145C43.8705 20.6647 43.5733 20.7884 43.2207 20.7884C42.8682 20.7884 42.5895 20.6633 42.3407 20.4145C42.0905 20.1657 41.9668 19.8714 41.9668 19.5345V6.50176C41.9668 6.20889 42.0549 5.9473 42.2312 5.71983C42.4075 5.49236 42.635 5.34166 42.9137 5.26915C43.1923 5.19523 43.4596 5.21798 43.7169 5.33456C43.9743 5.45256 44.1761 5.63595 44.3226 5.88475L49.0555 14.2941L53.767 5.88475C53.9134 5.63595 54.1153 5.45256 54.3727 5.33456C54.63 5.21655 54.9044 5.19523 55.1987 5.26915H55.1973ZM63.0352 9.67216C63.8128 9.67216 64.5393 9.81859 65.2146 10.1129C65.89 10.4072 66.4771 10.8024 66.9761 11.3014C67.4752 11.8004 67.8718 12.3876 68.1647 13.0629C68.4576 13.7382 68.6054 14.4647 68.6054 15.2424C68.6054 16.02 68.459 16.7252 68.1647 17.3991C67.8704 18.0744 67.4752 18.6615 66.9761 19.1606C66.4771 19.6596 65.89 20.0562 65.2146 20.3491C64.5393 20.6434 63.8128 20.7898 63.0352 20.7898C62.2575 20.7898 61.5523 20.6434 60.8784 20.3491C60.2031 20.0562 59.6159 19.6596 59.1169 19.1606C58.6179 18.6615 58.2212 18.0744 57.9284 17.3991C57.6341 16.7238 57.4876 16.0044 57.4876 15.2424C57.4876 14.4803 57.6341 13.7382 57.9284 13.0629C58.2212 12.3876 58.6179 11.8004 59.1169 11.3014C59.6159 10.8024 60.2031 10.4072 60.8784 10.1129C61.5537 9.82001 62.2731 9.67216 63.0352 9.67216ZM63.0352 18.2805C63.4602 18.2805 63.8569 18.1995 64.2237 18.0388C64.5905 17.8782 64.909 17.6607 65.1819 17.3891C65.4549 17.1176 65.6696 16.7949 65.8317 16.4209C65.9923 16.047 66.0734 15.6547 66.0734 15.2438C66.0734 14.8329 65.9923 14.422 65.8317 14.0552C65.6696 13.6884 65.4535 13.37 65.1819 13.097C64.9104 12.8255 64.5905 12.6094 64.2237 12.4473C63.8569 12.2867 63.4602 12.2056 63.0352 12.2056C62.6101 12.2056 62.2319 12.2867 61.858 12.4473C61.4841 12.6094 61.1613 12.8255 60.8898 13.097C60.6182 13.3686 60.4021 13.6884 60.2401 14.0552C60.078 14.422 59.9984 14.8187 59.9984 15.2438C59.9984 15.6689 60.0794 16.047 60.2401 16.4209C60.4007 16.7949 60.6182 17.1176 60.8898 17.3891C61.1613 17.6607 61.4841 17.8768 61.858 18.0388C62.2319 18.2009 62.6243 18.2805 63.0352 18.2805ZM79.4787 9.67216C80.1981 9.67216 80.7952 9.77878 81.2729 9.99204C81.7492 10.2053 82.1344 10.4697 82.4287 10.7839C82.7216 11.0995 82.9462 11.445 83.0998 11.8189C83.2533 12.1928 83.36 12.5497 83.4182 12.8866C83.4765 13.225 83.5064 13.5136 83.5064 13.7567V19.5359C83.5064 19.8742 83.3813 20.1671 83.1325 20.4159C82.8823 20.6661 82.5823 20.7898 82.2297 20.7898C81.8771 20.7898 81.5984 20.6647 81.3496 20.4159C81.0994 20.1671 80.9757 19.8728 80.9757 19.5359V14.0766C80.9757 14.0041 80.9615 13.8647 80.9317 13.6586C80.9018 13.4539 80.8393 13.2435 80.744 13.0316C80.6488 12.8198 80.5023 12.6279 80.3033 12.4587C80.1056 12.2895 79.8298 12.2056 79.4773 12.2056C79.1247 12.2056 78.8275 12.2938 78.6299 12.4701C78.4323 12.6463 78.2844 12.844 78.1892 13.0643C78.0939 13.2847 78.0385 13.4979 78.0243 13.7027C78.0101 13.9088 78.0029 14.0325 78.0029 14.0766V19.5359C78.0029 19.8742 77.875 20.1671 77.6176 20.4159C77.3603 20.6661 77.0632 20.7898 76.7262 20.7898C76.3893 20.7898 76.0737 20.6647 75.8234 20.4159C75.5732 20.1671 75.4495 19.8728 75.4495 19.5359V14.0766C75.4495 14.0325 75.4424 13.9074 75.4282 13.7027C75.414 13.4979 75.3586 13.2847 75.2633 13.0643C75.168 12.844 75.0216 12.6463 74.8226 12.4701C74.625 12.2938 74.342 12.2056 73.9752 12.2056C73.6084 12.2056 73.344 12.2909 73.1393 12.4587C72.9331 12.6279 72.7838 12.8184 72.6886 13.0316C72.5933 13.2449 72.5308 13.4539 72.5009 13.6586C72.4711 13.8647 72.4568 14.0041 72.4568 14.0766V14.9466C72.4568 15.204 72.4597 15.4968 72.4682 15.8267C72.4753 16.1565 72.4796 16.4906 72.4796 16.829V19.5373C72.4796 19.8757 72.3545 20.1685 72.1057 20.4173C71.8555 20.6676 71.5555 20.7912 71.2029 20.7912C70.8503 20.7912 70.5717 20.6661 70.3229 20.4173C70.0726 20.1685 69.9489 19.8742 69.9489 19.5373V13.7581C69.9489 13.5164 69.9788 13.2264 70.0371 12.888C70.0954 12.5511 70.202 12.1942 70.357 11.8203C70.5105 11.4464 70.7352 11.101 71.028 10.7853C71.3209 10.4697 71.7062 10.2053 72.1839 9.99345C72.6601 9.7802 73.2587 9.67357 73.9781 9.67357C74.6235 9.67357 75.1709 9.76882 75.6187 9.95933C76.0666 10.1498 76.4362 10.3858 76.7305 10.6631C77.0234 10.3844 77.3916 10.1498 77.8309 9.95933C78.2716 9.76882 78.8219 9.67357 79.4815 9.67357L79.4787 9.67216ZM87.7559 4.14743C88.0047 4.2498 88.2222 4.39339 88.4056 4.57679C88.589 4.76019 88.7355 4.97629 88.8463 5.22651C88.9558 5.47672 89.0113 5.73974 89.0113 6.01839C89.0113 6.25297 88.9672 6.48044 88.879 6.7008C88.8648 6.75909 88.7795 6.93538 88.626 7.22967C88.4724 7.52396 88.3075 7.83958 88.1312 8.17653C87.9109 8.57318 87.6692 9.01248 87.4047 9.49728C87.2867 9.71764 87.1104 9.86124 86.8759 9.92664C86.6413 9.99203 86.4209 9.96787 86.2162 9.84987C85.9958 9.73329 85.8494 9.55699 85.7754 9.32099C85.7015 9.08641 85.7243 8.86605 85.8408 8.66132L86.2375 7.91209C85.855 7.76566 85.5437 7.5197 85.302 7.17423C85.0603 6.83018 84.9381 6.4449 84.9381 6.01839C84.9381 5.73974 84.9892 5.4753 85.0916 5.22651C85.194 4.97771 85.3376 4.76019 85.521 4.57679C85.7044 4.39339 85.9205 4.2498 86.1707 4.14743C86.4195 4.04507 86.6839 3.9939 86.9626 3.9939C87.2412 3.9939 87.5057 4.04507 87.7545 4.14743H87.7559ZM96.0786 14.2074C96.4895 14.2657 96.8676 14.3879 97.2117 14.5713C97.5558 14.7547 97.8529 14.9893 98.1031 15.2765C98.3519 15.5622 98.5467 15.8892 98.686 16.256C98.8253 16.6228 98.895 17.0124 98.895 17.4232C98.895 17.8341 98.814 18.2635 98.6533 18.6672C98.4912 19.071 98.2566 19.4264 97.9481 19.7349C97.6396 20.0434 97.2842 20.2823 96.8804 20.45C96.4767 20.6192 96.0544 20.7031 95.6151 20.7031H90.9263C90.5879 20.7031 90.2951 20.578 90.0463 20.3292C89.796 20.0804 89.6724 19.7861 89.6724 19.4492C89.6724 19.1122 89.7975 18.7966 90.0463 18.5464C90.2951 18.2976 90.5894 18.1725 90.9263 18.1725H95.6151C95.8355 18.1725 96.0189 18.0986 96.1653 17.9521C96.3118 17.8057 96.3857 17.6294 96.3857 17.4232C96.3857 17.247 96.3274 17.0934 96.2094 16.9612C96.0914 16.829 95.945 16.7494 95.7687 16.7195C95.2099 16.6456 94.6085 16.5688 93.9631 16.4878C93.3176 16.4067 92.7148 16.33 92.1575 16.256C91.7608 16.212 91.3912 16.0954 91.0457 15.9034C90.7003 15.7129 90.4003 15.4741 90.1429 15.1883C89.8856 14.9026 89.688 14.5799 89.5487 14.2202C89.4093 13.8605 89.3397 13.4752 89.3397 13.0643C89.3397 12.6094 89.4278 12.1843 89.6041 11.7876C89.7804 11.391 90.015 11.0427 90.3093 10.7427C90.6021 10.4427 90.9476 10.2067 91.3443 10.0389C91.7409 9.86976 92.166 9.78589 92.621 9.78589H96.98C97.3325 9.78589 97.6325 9.90673 97.8827 10.1498C98.1315 10.3915 98.2567 10.6887 98.2567 11.0412C98.2567 11.3938 98.1315 11.691 97.8827 11.9326C97.6325 12.1743 97.3325 12.2966 96.98 12.2966H92.621C92.4148 12.2966 92.2357 12.3734 92.0822 12.5283C91.9286 12.6833 91.8504 12.8624 91.8504 13.0672C91.8504 13.2435 91.9087 13.397 92.0267 13.5292C92.1433 13.6614 92.2912 13.7425 92.4674 13.7709L96.0772 14.2116L96.0786 14.2074ZM120.184 5.26915C120.462 5.34308 120.687 5.49378 120.855 5.71983C121.024 5.9473 121.108 6.20747 121.108 6.50176V19.5345C121.108 19.8728 120.987 20.1657 120.744 20.4145C120.502 20.6647 120.205 20.7884 119.852 20.7884C119.5 20.7884 119.221 20.6633 118.972 20.4145C118.722 20.1657 118.599 19.8714 118.599 19.5345V11.3014L115.142 17.4872C114.878 17.9137 114.511 18.1256 114.042 18.1256C113.543 18.1256 113.176 17.9123 112.942 17.4872L109.463 11.3014V19.5345C109.463 19.8728 109.342 20.1657 109.099 20.4145C108.857 20.6647 108.56 20.7884 108.207 20.7884C107.855 20.7884 107.576 20.6633 107.327 20.4145C107.077 20.1657 106.953 19.8714 106.953 19.5345V6.50176C106.953 6.20889 107.041 5.9473 107.218 5.71983C107.394 5.49236 107.621 5.34166 107.9 5.26915C108.179 5.19523 108.446 5.21798 108.703 5.33456C108.961 5.45256 109.163 5.63595 109.309 5.88475L114.042 14.2941L118.753 5.88475C118.9 5.63595 119.102 5.45256 119.359 5.33456C119.616 5.21655 119.891 5.19523 120.185 5.26915H120.184ZM124.455 8.57175C123.985 8.57175 123.589 8.41111 123.266 8.08696C122.943 7.76423 122.781 7.36758 122.781 6.89842C122.781 6.42926 122.942 6.03687 123.266 5.72125C123.589 5.40564 123.985 5.24783 124.455 5.24783C124.924 5.24783 125.299 5.40564 125.622 5.72125C125.944 6.03687 126.107 6.42926 126.107 6.89842C126.107 7.36758 125.944 7.76423 125.622 8.08696C125.299 8.40968 124.91 8.57175 124.455 8.57175ZM124.455 9.67216C124.791 9.67216 125.086 9.79726 125.335 10.0461C125.585 10.2963 125.708 10.5963 125.708 10.9488V19.5345C125.708 19.8728 125.583 20.1657 125.335 20.4145C125.084 20.6647 124.791 20.7884 124.455 20.7884C124.118 20.7884 123.805 20.6633 123.563 20.4145C123.321 20.1657 123.201 19.8714 123.201 19.5345V10.9488C123.201 10.5963 123.321 10.2963 123.563 10.0461C123.805 9.79726 124.102 9.67216 124.455 9.67216ZM131.852 18.1696C132.204 18.1696 132.501 18.2947 132.743 18.5435C132.985 18.7938 133.106 19.0937 133.106 19.4463C133.106 19.7989 132.985 20.0776 132.743 20.3264C132.501 20.5766 132.204 20.7003 131.852 20.7003H131.411C130.912 20.7003 130.443 20.605 130.002 20.4145C129.561 20.224 129.176 19.9638 128.846 19.6326C128.516 19.3013 128.255 18.9175 128.064 18.4767C127.874 18.036 127.779 17.5668 127.779 17.0678V6.50176C127.779 6.14918 127.902 5.85205 128.152 5.61037C128.401 5.36868 128.696 5.24641 129.032 5.24641C129.369 5.24641 129.682 5.36726 129.924 5.61037C130.166 5.85205 130.286 6.14918 130.286 6.50176V17.0678C130.286 17.3763 130.396 17.6365 130.616 17.8498C130.837 18.063 131.101 18.1696 131.408 18.1696H131.849H131.852ZM144.157 18.6544C144.405 18.9047 144.528 19.2018 144.521 19.5458C144.513 19.8913 144.384 20.1884 144.135 20.4372C143.885 20.6875 143.588 20.8083 143.244 20.8012C142.898 20.7941 142.601 20.6661 142.352 20.4159L138.346 16.256L136.849 17.6863V19.5359C136.849 19.8742 136.728 20.1671 136.485 20.4159C136.243 20.6661 135.946 20.7898 135.594 20.7898C135.241 20.7898 134.962 20.6647 134.714 20.4159C134.463 20.1671 134.34 19.8728 134.34 19.5359V6.50319C134.34 6.15061 134.465 5.85348 134.714 5.61179C134.962 5.3701 135.257 5.24783 135.594 5.24783C135.931 5.24783 136.243 5.36868 136.485 5.61179C136.727 5.85348 136.849 6.15061 136.849 6.50319V14.2074L141.538 9.73897C141.787 9.49017 142.084 9.37218 142.429 9.38639C142.773 9.40061 143.07 9.53282 143.321 9.78304C143.569 10.0333 143.687 10.3304 143.673 10.6744C143.659 11.0199 143.527 11.3099 143.277 11.5445L140.173 14.5159L144.158 18.6544H144.157Z" fill="white"/>
</svg>
