<svg width="145" height="26" viewBox="0 0 145 26" fill="none" xmlns="http://www.w3.org/2000/svg">
<path d="M31.5691 8.7804C31.5691 9.85094 31.3644 12.7071 29.4707 16.0822C27.5414 19.5199 24.4904 22.4443 20.4016 24.7745C19.0026 25.5721 17.4117 25.9957 15.8052 26H15.7782C14.173 26 12.5907 25.5834 11.1988 24.7916C10.4937 24.3906 9.8155 23.9684 9.1672 23.5291C8.31417 22.949 8.12793 21.7704 8.76628 20.9601C9.11602 20.5165 9.63636 20.2819 10.1638 20.2819C10.505 20.2819 10.8505 20.3815 11.1533 20.5862C11.7263 20.9757 12.3277 21.3496 12.9532 21.705C14.7019 22.6988 16.8828 22.6931 18.6443 21.6894C22.1645 19.6834 24.7648 17.2125 26.3742 14.3449C27.8585 11.6992 28.0191 9.57229 28.0191 8.7804C28.0191 6.75875 26.6002 3.54998 22.79 3.54998C21.3797 3.54998 20.0717 3.9907 18.9031 4.85936C17.9932 5.53609 16.9155 5.89294 15.7853 5.89294C14.655 5.89294 13.5774 5.53467 12.6675 4.85936C11.4988 3.9907 10.1908 3.54998 8.7805 3.54998C4.97031 3.54998 3.55002 6.75733 3.55002 8.7804V8.85433C3.57419 10.7893 4.52105 12.5095 6.15033 13.5715C7.79952 14.6463 9.77996 14.8183 11.587 14.0464L12.1215 13.8189C14.4503 12.8237 17.1203 12.8237 19.4476 13.8189L20.9887 14.4771C21.8901 14.8624 22.3095 15.906 21.9228 16.8073C21.6342 17.4812 20.9788 17.885 20.2893 17.885C20.0561 17.885 19.8201 17.838 19.5926 17.7414L18.0515 17.0817C16.6099 16.4661 14.9564 16.4661 13.5162 17.0817L12.9817 17.3106C11.5244 17.9333 9.9335 18.1792 8.37815 18.0214C6.90383 17.8722 5.46364 17.3618 4.21253 16.5457C2.96996 15.7353 1.92784 14.6335 1.20135 13.3597C0.433624 12.0133 0.0184823 10.4694 0 8.89556C0 8.85575 0 8.81737 0 8.7804C0 6.65639 0.797584 4.51674 2.18944 2.91022C2.96996 2.01028 3.90686 1.30227 4.97457 0.807523C6.13042 0.271543 7.40997 0 8.7805 0C10.9401 0 13.0172 0.695213 14.7858 2.01171C15.3829 2.4567 16.1862 2.4567 16.7833 2.01171C18.5533 0.695213 20.6305 0 22.79 0C24.1592 0 25.4401 0.271543 26.596 0.807523C27.6637 1.30227 28.6006 2.01028 29.3811 2.91022C30.773 4.51674 31.5705 6.65639 31.5705 8.7804H31.5691Z" fill="#F69173"/>
<path d="M55.1973 5.2694C55.4759 5.34333 55.7005 5.49402 55.8683 5.72007C56.0375 5.94755 56.1214 6.20772 56.1214 6.50201V19.5347C56.1214 19.8731 56.0005 20.1659 55.7574 20.4147C55.5157 20.665 55.2186 20.7887 54.866 20.7887C54.5134 20.7887 54.2347 20.6635 53.9859 20.4147C53.7357 20.1659 53.612 19.8717 53.612 19.5347V11.3017L50.1559 17.4875C49.8914 17.914 49.5246 18.1258 49.0555 18.1258C48.5564 18.1258 48.1896 17.9126 47.955 17.4875L44.4761 11.3017V19.5347C44.4761 19.8731 44.3553 20.1659 44.1122 20.4147C43.8705 20.665 43.5733 20.7887 43.2207 20.7887C42.8682 20.7887 42.5895 20.6635 42.3407 20.4147C42.0905 20.1659 41.9668 19.8717 41.9668 19.5347V6.50201C41.9668 6.20914 42.0549 5.94755 42.2312 5.72007C42.4075 5.4926 42.635 5.34191 42.9137 5.2694C43.1923 5.19547 43.4596 5.21822 43.7169 5.3348C43.9743 5.4528 44.1761 5.6362 44.3226 5.885L49.0555 14.2943L53.767 5.885C53.9134 5.6362 54.1153 5.4528 54.3727 5.3348C54.63 5.2168 54.9044 5.19547 55.1987 5.2694H55.1973ZM63.0352 9.6724C63.8128 9.6724 64.5393 9.81883 65.2146 10.1131C65.89 10.4074 66.4771 10.8026 66.9761 11.3017C67.4752 11.8007 67.8718 12.3878 68.1647 13.0631C68.4576 13.7385 68.6054 14.4649 68.6054 15.2426C68.6054 16.0203 68.459 16.7254 68.1647 17.3993C67.8704 18.0746 67.4752 18.6618 66.9761 19.1608C66.4771 19.6598 65.89 20.0565 65.2146 20.3493C64.5393 20.6436 63.8128 20.7901 63.0352 20.7901C62.2575 20.7901 61.5523 20.6436 60.8784 20.3493C60.2031 20.0565 59.6159 19.6598 59.1169 19.1608C58.6179 18.6618 58.2212 18.0746 57.9284 17.3993C57.6341 16.724 57.4876 16.0046 57.4876 15.2426C57.4876 14.4806 57.6341 13.7385 57.9284 13.0631C58.2212 12.3878 58.6179 11.8007 59.1169 11.3017C59.6159 10.8026 60.2031 10.4074 60.8784 10.1131C61.5537 9.82025 62.2731 9.6724 63.0352 9.6724ZM63.0352 18.2808C63.4602 18.2808 63.8569 18.1997 64.2237 18.0391C64.5905 17.8784 64.909 17.6609 65.1819 17.3894C65.4549 17.1178 65.6696 16.7951 65.8317 16.4212C65.9923 16.0473 66.0734 15.6549 66.0734 15.244C66.0734 14.8332 65.9923 14.4223 65.8317 14.0555C65.6696 13.6887 65.4535 13.3702 65.1819 13.0973C64.9104 12.8257 64.5905 12.6096 64.2237 12.4475C63.8569 12.2869 63.4602 12.2059 63.0352 12.2059C62.6101 12.2059 62.2319 12.2869 61.858 12.4475C61.4841 12.6096 61.1613 12.8257 60.8898 13.0973C60.6182 13.3688 60.4021 13.6887 60.2401 14.0555C60.078 14.4223 59.9984 14.8189 59.9984 15.244C59.9984 15.6691 60.0794 16.0473 60.2401 16.4212C60.4007 16.7951 60.6182 17.1178 60.8898 17.3894C61.1613 17.6609 61.4841 17.877 61.858 18.0391C62.2319 18.2012 62.6243 18.2808 63.0352 18.2808ZM79.4787 9.6724C80.1981 9.6724 80.7952 9.77903 81.2729 9.99228C81.7492 10.2055 82.1344 10.47 82.4287 10.7842C82.7216 11.0998 82.9462 11.4453 83.0998 11.8192C83.2533 12.1931 83.36 12.5499 83.4182 12.8869C83.4765 13.2252 83.5064 13.5138 83.5064 13.7569V19.5361C83.5064 19.8745 83.3813 20.1674 83.1325 20.4162C82.8823 20.6664 82.5823 20.7901 82.2297 20.7901C81.8771 20.7901 81.5984 20.665 81.3496 20.4162C81.0994 20.1674 80.9757 19.8731 80.9757 19.5361V14.0768C80.9757 14.0043 80.9615 13.865 80.9317 13.6588C80.9018 13.4541 80.8393 13.2437 80.744 13.0319C80.6488 12.82 80.5023 12.6281 80.3033 12.4589C80.1056 12.2897 79.8298 12.2059 79.4773 12.2059C79.1247 12.2059 78.8275 12.294 78.6299 12.4703C78.4323 12.6466 78.2844 12.8442 78.1892 13.0646C78.0939 13.2849 78.0385 13.4982 78.0243 13.7029C78.0101 13.9091 78.0029 14.0327 78.0029 14.0768V19.5361C78.0029 19.8745 77.875 20.1674 77.6176 20.4162C77.3603 20.6664 77.0632 20.7901 76.7262 20.7901C76.3893 20.7901 76.0737 20.665 75.8234 20.4162C75.5732 20.1674 75.4495 19.8731 75.4495 19.5361V14.0768C75.4495 14.0327 75.4424 13.9076 75.4282 13.7029C75.414 13.4982 75.3586 13.2849 75.2633 13.0646C75.168 12.8442 75.0216 12.6466 74.8226 12.4703C74.625 12.294 74.342 12.2059 73.9752 12.2059C73.6084 12.2059 73.344 12.2912 73.1393 12.4589C72.9331 12.6281 72.7838 12.8186 72.6886 13.0319C72.5933 13.2451 72.5308 13.4541 72.5009 13.6588C72.4711 13.865 72.4568 14.0043 72.4568 14.0768V14.9469C72.4568 15.2042 72.4597 15.4971 72.4682 15.8269C72.4753 16.1568 72.4796 16.4909 72.4796 16.8292V19.5375C72.4796 19.8759 72.3545 20.1688 72.1057 20.4176C71.8555 20.6678 71.5555 20.7915 71.2029 20.7915C70.8503 20.7915 70.5717 20.6664 70.3229 20.4176C70.0726 20.1688 69.9489 19.8745 69.9489 19.5375V13.7584C69.9489 13.5167 69.9788 13.2266 70.0371 12.8883C70.0954 12.5513 70.202 12.1945 70.357 11.8206C70.5105 11.4467 70.7352 11.1012 71.028 10.7856C71.3209 10.47 71.7062 10.2055 72.1839 9.9937C72.6601 9.78044 73.2587 9.67381 73.9781 9.67381C74.6235 9.67381 75.1709 9.76907 75.6187 9.95958C76.0666 10.1501 76.4362 10.3861 76.7305 10.6633C77.0234 10.3847 77.3916 10.1501 77.8309 9.95958C78.2716 9.76907 78.8219 9.67381 79.4815 9.67381L79.4787 9.6724ZM87.7559 4.14768C88.0047 4.25004 88.2222 4.39363 88.4056 4.57703C88.589 4.76043 88.7355 4.97653 88.8463 5.22675C88.9558 5.47697 89.0113 5.73998 89.0113 6.01864C89.0113 6.25322 88.9672 6.48069 88.879 6.70105C88.8648 6.75934 88.7795 6.93562 88.626 7.22992C88.4724 7.52421 88.3075 7.83983 88.1312 8.17677C87.9109 8.57342 87.6692 9.01273 87.4047 9.49752C87.2867 9.71789 87.1104 9.86148 86.8759 9.92688C86.6413 9.99228 86.4209 9.96811 86.2162 9.85011C85.9958 9.73353 85.8494 9.55724 85.7754 9.32124C85.7015 9.08666 85.7243 8.86629 85.8408 8.66157L86.2375 7.91234C85.855 7.7659 85.5437 7.51995 85.302 7.17448C85.0603 6.83043 84.9381 6.44515 84.9381 6.01864C84.9381 5.73998 84.9892 5.47555 85.0916 5.22675C85.194 4.97795 85.3376 4.76043 85.521 4.57703C85.7044 4.39363 85.9205 4.25004 86.1707 4.14768C86.4195 4.04532 86.6839 3.99414 86.9626 3.99414C87.2412 3.99414 87.5057 4.04532 87.7545 4.14768H87.7559ZM96.0786 14.2076C96.4895 14.2659 96.8676 14.3882 97.2117 14.5716C97.5558 14.755 97.8529 14.9895 98.1031 15.2767C98.3519 15.5625 98.5467 15.8895 98.686 16.2563C98.8253 16.6231 98.895 17.0126 98.895 17.4235C98.895 17.8344 98.814 18.2637 98.6533 18.6675C98.4912 19.0712 98.2566 19.4267 97.9481 19.7352C97.6396 20.0437 97.2842 20.2825 96.8804 20.4503C96.4767 20.6195 96.0544 20.7033 95.6151 20.7033H90.9263C90.5879 20.7033 90.2951 20.5782 90.0463 20.3294C89.796 20.0806 89.6724 19.7863 89.6724 19.4494C89.6724 19.1125 89.7975 18.7968 90.0463 18.5466C90.2951 18.2978 90.5894 18.1727 90.9263 18.1727H95.6151C95.8355 18.1727 96.0189 18.0988 96.1653 17.9524C96.3118 17.8059 96.3857 17.6296 96.3857 17.4235C96.3857 17.2472 96.3274 17.0937 96.2094 16.9614C96.0914 16.8292 95.945 16.7496 95.7687 16.7197C95.2099 16.6458 94.6085 16.5691 93.9631 16.488C93.3176 16.407 92.7148 16.3302 92.1575 16.2563C91.7608 16.2122 91.3912 16.0956 91.0457 15.9037C90.7003 15.7132 90.4003 15.4743 90.1429 15.1886C89.8856 14.9028 89.688 14.5801 89.5487 14.2204C89.4093 13.8607 89.3397 13.4754 89.3397 13.0646C89.3397 12.6096 89.4278 12.1845 89.6041 11.7879C89.7804 11.3912 90.015 11.0429 90.3093 10.7429C90.6021 10.443 90.9476 10.207 91.3443 10.0392C91.7409 9.87001 92.166 9.78613 92.621 9.78613H96.98C97.3325 9.78613 97.6325 9.90698 97.8827 10.1501C98.1315 10.3918 98.2567 10.6889 98.2567 11.0415C98.2567 11.3941 98.1315 11.6912 97.8827 11.9329C97.6325 12.1746 97.3325 12.2968 96.98 12.2968H92.621C92.4148 12.2968 92.2357 12.3736 92.0822 12.5286C91.9286 12.6835 91.8504 12.8627 91.8504 13.0674C91.8504 13.2437 91.9087 13.3972 92.0267 13.5295C92.1433 13.6617 92.2912 13.7427 92.4674 13.7711L96.0772 14.2119L96.0786 14.2076ZM120.184 5.2694C120.462 5.34333 120.687 5.49402 120.855 5.72007C121.024 5.94755 121.108 6.20772 121.108 6.50201V19.5347C121.108 19.8731 120.987 20.1659 120.744 20.4147C120.502 20.665 120.205 20.7887 119.852 20.7887C119.5 20.7887 119.221 20.6635 118.972 20.4147C118.722 20.1659 118.599 19.8717 118.599 19.5347V11.3017L115.142 17.4875C114.878 17.914 114.511 18.1258 114.042 18.1258C113.543 18.1258 113.176 17.9126 112.942 17.4875L109.463 11.3017V19.5347C109.463 19.8731 109.342 20.1659 109.099 20.4147C108.857 20.665 108.56 20.7887 108.207 20.7887C107.855 20.7887 107.576 20.6635 107.327 20.4147C107.077 20.1659 106.953 19.8717 106.953 19.5347V6.50201C106.953 6.20914 107.041 5.94755 107.218 5.72007C107.394 5.4926 107.621 5.34191 107.9 5.2694C108.179 5.19547 108.446 5.21822 108.703 5.3348C108.961 5.4528 109.163 5.6362 109.309 5.885L114.042 14.2943L118.753 5.885C118.9 5.6362 119.102 5.4528 119.359 5.3348C119.616 5.2168 119.891 5.19547 120.185 5.2694H120.184ZM124.455 8.572C123.985 8.572 123.589 8.41135 123.266 8.0872C122.943 7.76448 122.781 7.36783 122.781 6.89867C122.781 6.42951 122.942 6.03711 123.266 5.7215C123.589 5.40588 123.985 5.24807 124.455 5.24807C124.924 5.24807 125.299 5.40588 125.622 5.7215C125.944 6.03711 126.107 6.42951 126.107 6.89867C126.107 7.36783 125.944 7.76448 125.622 8.0872C125.299 8.40993 124.91 8.572 124.455 8.572ZM124.455 9.6724C124.791 9.6724 125.086 9.7975 125.335 10.0463C125.585 10.2965 125.708 10.5965 125.708 10.9491V19.5347C125.708 19.8731 125.583 20.1659 125.335 20.4147C125.084 20.665 124.791 20.7887 124.455 20.7887C124.118 20.7887 123.805 20.6635 123.563 20.4147C123.321 20.1659 123.201 19.8717 123.201 19.5347V10.9491C123.201 10.5965 123.321 10.2965 123.563 10.0463C123.805 9.7975 124.102 9.6724 124.455 9.6724ZM131.852 18.1699C132.204 18.1699 132.501 18.295 132.743 18.5438C132.985 18.794 133.106 19.094 133.106 19.4466C133.106 19.7991 132.985 20.0778 132.743 20.3266C132.501 20.5768 132.204 20.7005 131.852 20.7005H131.411C130.912 20.7005 130.443 20.6052 130.002 20.4147C129.561 20.2242 129.176 19.9641 128.846 19.6328C128.516 19.3016 128.255 18.9177 128.064 18.477C127.874 18.0362 127.779 17.5671 127.779 17.0681V6.50201C127.779 6.14943 127.902 5.8523 128.152 5.61061C128.401 5.36892 128.696 5.24666 129.032 5.24666C129.369 5.24666 129.682 5.3675 129.924 5.61061C130.166 5.8523 130.286 6.14943 130.286 6.50201V17.0681C130.286 17.3766 130.396 17.6367 130.616 17.85C130.837 18.0632 131.101 18.1699 131.408 18.1699H131.849H131.852ZM144.157 18.6547C144.405 18.9049 144.528 19.202 144.521 19.5461C144.513 19.8916 144.384 20.1887 144.135 20.4375C143.885 20.6877 143.588 20.8085 143.244 20.8014C142.898 20.7943 142.601 20.6664 142.352 20.4162L138.346 16.2563L136.849 17.6865V19.5361C136.849 19.8745 136.728 20.1674 136.485 20.4162C136.243 20.6664 135.946 20.7901 135.594 20.7901C135.241 20.7901 134.962 20.665 134.714 20.4162C134.463 20.1674 134.34 19.8731 134.34 19.5361V6.50343C134.34 6.15085 134.465 5.85372 134.714 5.61203C134.962 5.37034 135.257 5.24807 135.594 5.24807C135.931 5.24807 136.243 5.36892 136.485 5.61203C136.727 5.85372 136.849 6.15085 136.849 6.50343V14.2076L141.538 9.73921C141.787 9.49042 142.084 9.37242 142.429 9.38664C142.773 9.40085 143.07 9.53307 143.321 9.78329C143.569 10.0335 143.687 10.3306 143.673 10.6747C143.659 11.0202 143.527 11.3102 143.277 11.5448L140.173 14.5161L144.158 18.6547H144.157Z" fill="#3F2F39"/>
</svg>
