<svg width="32" height="26" viewBox="0 0 32 26" fill="none" xmlns="http://www.w3.org/2000/svg">
<path d="M31.5691 8.7804C31.5691 9.85094 31.3644 12.7071 29.4707 16.0822C27.5414 19.5199 24.4904 22.4443 20.4016 24.7745C19.0026 25.5721 17.4117 25.9957 15.8052 26H15.7782C14.173 26 12.5907 25.5834 11.1988 24.7916C10.4937 24.3906 9.8155 23.9684 9.1672 23.5291C8.31417 22.949 8.12793 21.7704 8.76628 20.9601C9.11602 20.5165 9.63636 20.2819 10.1638 20.2819C10.505 20.2819 10.8505 20.3815 11.1533 20.5862C11.7263 20.9757 12.3277 21.3496 12.9532 21.705C14.7019 22.6988 16.8828 22.6931 18.6443 21.6894C22.1645 19.6834 24.7648 17.2125 26.3742 14.3449C27.8585 11.6992 28.0191 9.57229 28.0191 8.7804C28.0191 6.75875 26.6002 3.54998 22.79 3.54998C21.3797 3.54998 20.0717 3.9907 18.9031 4.85936C17.9932 5.53609 16.9155 5.89294 15.7853 5.89294C14.655 5.89294 13.5774 5.53467 12.6675 4.85936C11.4988 3.9907 10.1908 3.54998 8.7805 3.54998C4.97031 3.54998 3.55002 6.75733 3.55002 8.7804V8.85433C3.57419 10.7893 4.52105 12.5095 6.15033 13.5715C7.79952 14.6463 9.77996 14.8183 11.587 14.0464L12.1215 13.8189C14.4503 12.8237 17.1203 12.8237 19.4476 13.8189L20.9887 14.4771C21.8901 14.8624 22.3095 15.906 21.9228 16.8073C21.6342 17.4812 20.9788 17.885 20.2893 17.885C20.0561 17.885 19.8201 17.838 19.5926 17.7414L18.0515 17.0817C16.6099 16.4661 14.9564 16.4661 13.5162 17.0817L12.9817 17.3106C11.5244 17.9333 9.9335 18.1792 8.37815 18.0214C6.90383 17.8722 5.46364 17.3618 4.21253 16.5457C2.96996 15.7353 1.92784 14.6335 1.20135 13.3597C0.433624 12.0133 0.0184823 10.4694 0 8.89556C0 8.85575 0 8.81737 0 8.7804C0 6.65639 0.797584 4.51674 2.18944 2.91022C2.96996 2.01028 3.90686 1.30227 4.97457 0.807523C6.13042 0.271543 7.40997 0 8.7805 0C10.9401 0 13.0172 0.695213 14.7858 2.01171C15.3829 2.4567 16.1862 2.4567 16.7833 2.01171C18.5533 0.695213 20.6305 0 22.79 0C24.1592 0 25.4401 0.271543 26.596 0.807523C27.6637 1.30227 28.6006 2.01028 29.3811 2.91022C30.773 4.51674 31.5705 6.65639 31.5705 8.7804H31.5691Z" fill="#F69173"/>
</svg>
